<svg id="Capa_1" enable-background="new 0 0 511.213 511.213" height="512" viewBox="0 0 511.213 511.213" width="512" xmlns="http://www.w3.org/2000/svg"><g><g><g><path d="m402.3 381.478 35.761-29.199-48.395-50.356-181.041-181.041-47.86-46.012-34.568 31.622 48.756 48.061z" fill="#e5e1e5"/></g><path d="m482.856 378.892-11.234-11.234-22.177-24.123-52.14 50.114 24.426 23.902 11.234 11.234c6.827 6.827 17.897 6.827 24.724 0l25.168-25.168c6.826-6.828 6.826-17.898-.001-24.725z" fill="#e5e1e5"/><path d="m142.89 38.926-11.234-11.234c-6.827-6.827-17.897-6.827-24.724 0l-25.168 25.168c-6.827 6.827-6.827 17.897 0 24.724l11.234 11.234 23.023 22.465 49.181-46.93z" fill="#e5e1e5"/><g><path d="m180.32 159.924-1.64-43.01-25.31 5.42-4.53 58.33-.427 4.63s4.065 11.167 4.065 10.963 26.414 0 26.414 0l3.098-10.963z" fill="#ffe5c2"/><path d="m167.912 195.224.427-4.63 4.53-58.33 6.345-1.359-.533-13.991-25.31 5.42-4.53 58.33-.427 4.63s4.065 11.167 4.065 10.963c0-.115 8.446-.1 15.787-.065-.219-.599-.354-.968-.354-.968z" fill="#fed2a4"/><path d="m383.35 231.194-11.61-11.6c-4.73-4.73-12.4-4.73-17.14 0 4.74-4.73 4.74-12.41 0-17.14l-11.6-11.61c-4.73-4.73-12.41-4.73-17.14 0 4.73-4.73 4.73-12.4 0-17.14l-11.61-11.6c-4.73-4.74-12.4-4.74-17.14 0 4.74-4.74 4.74-12.41 0-17.14l-11.6-11.61c-4.74-4.73-12.41-4.73-17.14 0l-12.91 12.9-63.21 63.22c-3.17 3.17-8.59 1.13-8.89-3.34l-1.371-20.84h-33.576l-7.403 80.27-124.2 124.19c-4.78 4.78-4.81 12.52-.07 17.34l85.42 86.87c4.79 4.88 12.65 4.91 17.48.07l117.47-117.46 10.26-2.3c8.46-1.89 16.19-6.15 22.32-12.27l100.76-100.76 12.9-12.91c4.73-4.73 4.73-12.4 0-17.14z" fill="#ffe5c2"/><path d="m168.767 185.294h-20.353l-7.403 80.27-124.2 124.19c-4.78 4.78-4.81 12.52-.07 17.34l15.887 16.157c-1.96-4.506-1.107-9.936 2.573-13.616l117.026-117.016c4.636-4.636 7.504-10.748 8.106-17.276l3.88-42.071z" fill="#fed2a4"/><path d="m270.217 152.817c4.73-4.73 12.4-4.73 17.14 0l9.489 9.497.416-.378c4.579-4.751 4.534-12.296-.152-16.972l-11.6-11.61c-4.74-4.73-12.41-4.73-17.14 0l-12.91 12.9-63.21 63.22c-2.547 2.547-6.541 1.726-8.17-1.011l1.127 17.134c.3 4.47 5.72 6.51 8.89 3.34l63.21-63.22z" fill="#fed2a4"/><rect fill="#ffe5c2" height=".001" width="0" x="181.989" y="185.293"/></g><g><path d="m109.668 187.364-41.37-41.37c-8.968-8.968-8.968-23.508 0-32.476l99.292-99.292c8.968-8.968 23.508-8.968 32.476 0l41.37 41.37c8.968 8.968 8.968 23.508 0 32.476l-99.292 99.292c-8.969 8.967-23.509 8.967-32.476 0z" fill="#baafb9"/><path d="m323.184 400.88 41.37 41.37c8.968 8.968 23.508 8.968 32.476 0l99.292-99.292c8.968-8.968 8.968-23.508 0-32.475l-41.37-41.37c-8.968-8.968-23.508-8.968-32.476 0l-99.292 99.292c-8.968 8.968-8.968 23.507 0 32.475z" fill="#baafb9"/><path d="m147.439 155.267-49.623-49.623c-4.163-4.163-6.368-9.529-6.666-14.979l-22.852 22.852c-8.968 8.968-8.968 23.508 0 32.476l41.37 41.37c8.968 8.968 23.508 8.968 32.476 0l25.769-25.769c-7.196 1.344-14.908-.76-20.474-6.327z" fill="#aa9ea9"/><path d="m406.888 414.717-58.486-58.486c-2.321-2.321-4.029-5.02-5.149-7.895l-20.069 20.069c-8.968 8.968-8.968 23.508 0 32.475l41.37 41.37c8.968 8.968 23.508 8.968 32.475 0l21.323-21.323c-4.2-.888-8.202-2.948-11.464-6.21z" fill="#aa9ea9"/><path d="m124.701 488.974 104.271-104.263c-1.341-1.936-2.862-3.785-4.585-5.508l-93.118-93.118c-1.83-1.83-3.809-3.456-5.906-4.875l-104.405 104.396c1.187 1.701 2.51 3.302 3.977 4.769l93.118 93.118c2.071 2.071 4.298 3.9 6.648 5.481z" fill="#fed2a4"/><path d="m132.197 469.351-93.118-93.118c-6.739-6.739-6.739-19.319 1.021-27.079l48.927-48.927c7.759-7.759 20.34-7.759 28.099 0l93.118 93.118c7.759 7.759 7.759 20.34 0 28.099l-48.927 48.927c-7.76 7.761-20.34 7.761-29.12-1.02z" fill="#f9f7f8"/><path d="m64.15 386.693 59.843-59.843c3.68-3.68 8.036-6.128 12.442-7.313l-19.309-19.309c-7.759-7.759-20.34-7.759-28.099 0l-48.927 48.927c-7.759 7.759-7.759 20.34-1.021 27.079l19.09 19.09c1.386-3.054 3.365-6.015 5.981-8.631z" fill="#efedef"/><path d="m50.276 338.979 74.537 74.537c7.891 7.891 20.684 7.891 28.574 0 7.891-7.891 7.891-20.684 0-28.574l-74.537-74.538z" fill="#efedef"/><path d="m59.755 318.314h40.41v43.55h-40.41z" fill="#e5e1e5" transform="matrix(.707 -.707 .707 .707 -217.059 156.15)"/><g fill="#f37c7c"><path d="m419.793 62.525-40.428-43.694c-1.608-1.738-4.356-1.738-5.964 0l-40.428 43.694c-2.407 2.601-.562 6.822 2.982 6.822h21.403c.476 0 .862.386.862.862v42.46c0 3.554 2.881 6.435 6.435 6.435h23.457c3.554 0 6.435-2.881 6.435-6.435v-42.46c0-.476.386-.862.862-.862h21.403c3.543 0 5.388-4.22 2.981-6.822z"/><path d="m316.697 447.134-40.428-43.694c-1.608-1.738-4.356-1.738-5.964 0l-40.428 43.694c-2.407 2.601-.562 6.822 2.982 6.822h21.403c.476 0 .862.386.862.862v42.46c0 3.554 2.881 6.435 6.435 6.435h23.457c3.554 0 6.435-2.881 6.435-6.435v-42.46c0-.476.386-.862.862-.862h21.403c3.542 0 5.387-4.221 2.981-6.822z"/></g></g></g><g><path d="m501.626 305.179-41.371-41.37c-5.754-5.754-13.403-8.922-21.541-8.922-8.137 0-15.787 3.168-21.541 8.922l-27.507 27.507-19.343-19.343 18.331-18.331c7.649-7.65 7.649-20.098 0-27.748l-11.604-11.605c-3.229-3.229-7.313-5.095-11.53-5.598-.513-4.359-2.46-8.392-5.611-11.543l-11.605-11.605c-3.229-3.229-7.312-5.095-11.529-5.598-.513-4.358-2.46-8.392-5.611-11.542l-11.604-11.605c-3.232-3.232-7.32-5.099-11.541-5.6-.501-4.221-2.368-8.31-5.601-11.542l-11.604-11.605c-7.65-7.65-20.098-7.65-27.748 0l-18.33 18.33-25.5-25.501 27.507-27.507c5.753-5.754 8.922-13.404 8.922-21.541s-3.169-15.787-8.922-21.541l-41.37-41.37c-5.758-5.753-13.408-8.921-21.546-8.921-8.137 0-15.787 3.168-21.541 8.922l-19.397 19.397-5.93-5.93c-9.743-9.742-25.59-9.741-35.331 0l-25.168 25.168c-9.74 9.741-9.74 25.59 0 35.331l5.93 5.931-19.397 19.397c-5.753 5.754-8.922 13.404-8.922 21.541s3.169 15.787 8.922 21.541l41.37 41.37c5.754 5.754 13.404 8.923 21.542 8.923 4.869 0 9.56-1.143 13.778-3.287l-1.288 13.954c-.381 4.125 2.653 7.777 6.778 8.158.234.021.467.032.698.032 3.831 0 7.101-2.921 7.459-6.811l2.731-29.584 17.199-17.199 2.618 39.77c.331 5.044 3.477 9.283 8.207 11.063 4.731 1.78 9.891.665 13.466-2.909l76.117-76.117c.872-.873 2.032-1.354 3.267-1.354s2.395.481 3.268 1.354l11.604 11.605c.873.873 1.354 2.033 1.354 3.267s-.48 2.395-1.354 3.268c-1.464 1.464-2.196 3.384-2.196 5.303s.732 3.839 2.196 5.303c2.93 2.929 7.678 2.929 10.607 0 1.801-1.801 4.731-1.801 6.534 0l11.605 11.605c.872.873 1.353 2.032 1.353 3.267 0 1.234-.48 2.395-1.354 3.267-1.464 1.464-2.196 3.384-2.196 5.303s.732 3.839 2.196 5.303c2.93 2.929 7.678 2.929 10.607 0 1.801-1.8 4.731-1.801 6.534 0l11.604 11.605c1.802 1.802 1.802 4.733 0 6.535-1.464 1.464-2.196 3.384-2.196 5.303s.732 3.839 2.196 5.303c2.93 2.929 7.678 2.929 10.607 0 1.801-1.801 4.732-1.801 6.533 0l11.604 11.605c1.802 1.802 1.802 4.733 0 6.535l-113.656 113.66c-5.127 5.126-11.575 8.672-18.648 10.256l-10.267 2.299c-1.388.311-2.659 1.01-3.665 2.016l-16.516 16.516-92.859-92.859c-.03-.03-.061-.057-.091-.087l23.971-23.972c1.237-1.238 2.004-2.87 2.164-4.614l1.907-20.655c.381-4.125-2.653-7.777-6.778-8.158-4.107-.374-7.776 2.654-8.157 6.779l-1.658 17.958-25.271 25.271c-1.772-.356-3.592-.539-5.44-.539-7.311 0-14.184 2.847-19.354 8.017l-48.926 48.927c-5.17 5.169-8.017 12.042-8.017 19.354 0 1.848.183 3.668.539 5.439l-24.443 24.441c-2.929 2.929-2.929 7.678 0 10.606 1.465 1.464 3.385 2.197 5.304 2.197s3.839-.732 5.304-2.197l21.227-21.227c.029.03.056.061.086.09l92.859 92.86-22.097 22.096c-2.929 2.929-2.929 7.678 0 10.606 1.465 1.465 3.384 2.197 5.304 2.197 1.919 0 3.839-.732 5.304-2.197l25.094-25.094c1.95.435 3.96.666 6.006.666 7.312 0 14.185-2.847 19.354-8.017l48.928-48.927c6.866-6.867 9.306-16.503 7.336-25.345l17.988-17.988 8.142-1.823c9.854-2.206 18.836-7.146 25.978-14.287l51.053-51.053 19.343 19.343-3.273 3.273c-2.929 2.929-2.929 7.678 0 10.606 2.929 2.929 7.677 2.929 10.607 0l75.059-75.058c2.92-2.92 6.804-4.529 10.934-4.529 4.131 0 8.014 1.608 10.935 4.529l41.37 41.37c6.028 6.029 6.028 15.84 0 21.869l-99.293 99.292c-2.92 2.921-6.804 4.529-10.935 4.529-4.13 0-8.014-1.608-10.934-4.529l-41.37-41.37c-2.921-2.921-4.529-6.804-4.529-10.935s1.608-8.014 4.529-10.935l1.634-1.634c2.929-2.929 2.929-7.678 0-10.606-2.93-2.929-7.678-2.929-10.607 0l-1.634 1.634c-5.753 5.754-8.922 13.404-8.922 21.541s3.169 15.787 8.922 21.541l41.37 41.37c5.754 5.754 13.404 8.923 21.541 8.923 8.138 0 15.788-3.169 21.542-8.923l19.397-19.397 5.93 5.931c4.871 4.871 11.269 7.306 17.665 7.306 6.397 0 12.795-2.436 17.666-7.306l25.168-25.168c9.74-9.741 9.74-25.589 0-35.33l-5.931-5.931 19.397-19.397c11.875-11.876 11.875-31.202-.001-43.08zm-267.5-148.19-23.065 23.065-25.501-25.501 23.065-23.065zm-141.129-78.778-5.93-5.93c-3.893-3.892-3.893-10.225 0-14.118l25.168-25.168c1.945-1.946 4.502-2.919 7.058-2.919 2.557 0 5.113.973 7.06 2.919l5.93 5.93-31.886 31.886zm32.909 108.379c-4.131 0-8.015-1.609-10.935-4.529l-41.37-41.37c-2.921-2.921-4.529-6.804-4.529-10.935s1.608-8.014 4.529-10.935l99.293-99.292c2.92-2.92 6.804-4.529 10.934-4.529 4.131 0 8.015 1.608 10.935 4.529l41.37 41.37c2.921 2.921 4.529 6.804 4.529 10.935s-1.608 8.014-4.529 10.935l-99.293 99.292c-2.921 2.92-6.805 4.529-10.934 4.529zm64.61 14.009-1.401-21.278 11.339 11.339zm14.425 215.543-48.928 48.927c-2.336 2.336-5.441 3.623-8.746 3.623-3.304 0-6.41-1.287-8.746-3.623l-93.118-93.118c-2.336-2.336-3.622-5.442-3.622-8.746s1.286-6.41 3.623-8.747l4.873-4.873 36.547 36.547c1.465 1.464 3.385 2.197 5.304 2.197s3.839-.732 5.304-2.197c2.929-2.929 2.929-7.678 0-10.606l-36.548-36.547 17.967-17.967 69.234 69.234c4.954 4.954 4.954 13.014 0 17.968-2.399 2.399-5.59 3.721-8.983 3.721s-6.584-1.322-8.983-3.721l-10.086-10.086c-2.93-2.929-7.678-2.929-10.607 0s-2.929 7.678 0 10.606l10.086 10.086c5.401 5.401 12.496 8.102 19.591 8.102s14.189-2.7 19.591-8.102c10.802-10.802 10.802-28.378 0-39.181l-69.235-69.234 4.873-4.873c2.336-2.336 5.442-3.623 8.746-3.623s6.41 1.287 8.746 3.623l93.118 93.118c4.821 4.822 4.821 12.669-.001 17.492zm131.71-110.497 23.065-23.065 19.343 19.343-23.065 23.065zm134.971 72.62 5.93 5.93c3.893 3.892 3.893 10.225 0 14.117l-25.168 25.168c-3.891 3.893-10.225 3.891-14.117 0l-5.931-5.931 7.399-7.399z"/><path d="m335.955 76.847h14.765v35.823c0 7.684 6.251 13.935 13.936 13.935h23.456c7.684 0 13.935-6.251 13.935-13.935v-35.823h14.766c4.596 0 8.754-2.721 10.595-6.931 1.841-4.211 1.013-9.111-2.108-12.484l-40.43-43.695c-2.182-2.358-5.275-3.71-8.487-3.71s-6.306 1.352-8.487 3.71l-40.429 43.695c-3.12 3.374-3.947 8.274-2.106 12.484 1.84 4.211 6 6.931 10.594 6.931zm40.428-50.196 32.564 35.196h-13.539c-4.611 0-8.362 3.751-8.362 8.362v41.395h-21.326v-41.395c0-4.611-3.751-8.362-8.362-8.362h-13.539z"/><path d="m281.774 398.346c-2.182-2.358-5.275-3.71-8.487-3.71s-6.306 1.352-8.487 3.71l-40.428 43.694c-3.121 3.373-3.948 8.273-2.108 12.483 1.841 4.211 6 6.933 10.596 6.933h14.765v35.822c0 7.684 6.251 13.935 13.935 13.935h23.457c7.684 0 13.935-6.251 13.935-13.935v-35.822h14.765c4.596 0 8.755-2.721 10.596-6.933 1.84-4.21 1.013-9.11-2.108-12.483zm10.538 48.11c-4.611 0-8.362 3.751-8.362 8.362v41.395h-21.326v-41.395c0-4.611-3.751-8.362-8.362-8.362h-13.539l32.564-35.196 32.564 35.196z"/></g></g></svg>